<svg width="68" height="72" viewBox="0 0 68 72" fill="none" xmlns="http://www.w3.org/2000/svg">
<path fill-rule="evenodd" clip-rule="evenodd" d="M34.0041 47.7082L55.7045 69.9261C57.8814 72.1722 59.2978 72.1952 61.5146 69.9261L65.8685 65.4674C68.0014 63.2842 68.146 61.851 65.8685 59.519L42.8942 36L65.8705 12.4809C68.0224 10.2705 68.0643 8.77866 65.8705 6.53047L61.5166 2.0739C59.258 -0.239245 57.8626 -0.132388 55.7066 2.0739L34.0041 24.2918L12.3037 2.07599C10.1477 -0.130292 8.75226 -0.23715 6.4936 2.07599L2.13969 6.53256C-0.0561192 8.78076 -0.0163098 10.2726 2.13969 12.483L25.114 36L2.13969 59.519C-0.137834 61.851 -0.0163098 63.2842 2.13969 65.4674L6.4915 69.9261C8.6894 72.1952 10.1058 72.1722 12.3016 69.9261L34.0041 47.7082V47.7082Z" fill="#545454"/>
</svg>
