<svg width="112" height="112" viewBox="0 0 112 112" fill="none" xmlns="http://www.w3.org/2000/svg">
<path d="M42 21H35C33.1435 21 31.363 21.7375 30.0503 23.0503C28.7375 24.363 28 26.1435 28 28V84C28 85.8565 28.7375 87.637 30.0503 88.9497C31.363 90.2625 33.1435 91 35 91H42C43.8565 91 45.637 90.2625 46.9497 88.9497C48.2625 87.637 49 85.8565 49 84V28C49 26.1435 48.2625 24.363 46.9497 23.0503C45.637 21.7375 43.8565 21 42 21V21Z" fill="#545454"/>
<path d="M77 21H70C68.1435 21 66.363 21.7375 65.0503 23.0503C63.7375 24.363 63 26.1435 63 28V84C63 85.8565 63.7375 87.637 65.0503 88.9497C66.363 90.2625 68.1435 91 70 91H77C78.8565 91 80.637 90.2625 81.9497 88.9497C83.2625 87.637 84 85.8565 84 84V28C84 26.1435 83.2625 24.363 81.9497 23.0503C80.637 21.7375 78.8565 21 77 21V21Z" fill="#545454"/>
</svg>
