<svg width="88" height="88" viewBox="0 0 88 88" fill="none" xmlns="http://www.w3.org/2000/svg">
<path d="M77.9571 39.36L21.8421 11.3025C21.0851 10.9518 20.2524 10.7959 19.4197 10.8492C18.5871 10.9025 17.781 11.1631 17.0749 11.6075C16.3687 12.0518 15.7849 12.6657 15.3766 13.3933C14.9683 14.1209 14.7485 14.9391 14.7371 15.7733V71.8641C14.73 72.7205 14.944 73.5642 15.3583 74.3137C15.7726 75.0632 16.3733 75.6931 17.1022 76.1427C17.8311 76.5922 18.6637 76.846 19.5194 76.8797C20.3751 76.9134 21.2251 76.7258 21.9871 76.335L77.9571 48.2775C78.7862 47.8613 79.4832 47.2228 79.9703 46.4333C80.4574 45.6437 80.7154 44.7343 80.7154 43.8066C80.7154 42.879 80.4574 41.9696 79.9703 41.18C79.4832 40.3905 78.7862 39.752 77.9571 39.3358V39.36Z" fill="#545454"/>
</svg>
