<svg width="84" height="84" viewBox="0 0 84 84" fill="none" xmlns="http://www.w3.org/2000/svg">
<g clip-path="url(#clip0)">
<path d="M82.8468 58.9032C84.3846 60.4409 84.3846 62.934 82.8468 64.4716L69.7218 77.594C67.2592 80.0566 63 78.3306 63 74.8097V68.25H53.3556C53.0856 68.25 52.8185 68.1944 52.5709 68.0868C52.3233 67.9793 52.1005 67.8219 51.9163 67.6246L40.3407 55.2221L49.0906 45.8471L57.75 55.125H63V48.5656C63 45.0484 67.2563 43.3159 69.7218 45.7813L82.8468 58.9032ZM1.96875 28.875H15.75L24.4094 38.1529L33.1593 28.7779L21.5837 16.3754C21.3995 16.178 21.1767 16.0207 20.9291 15.9131C20.6815 15.8055 20.4144 15.75 20.1444 15.75H1.96875C0.881508 15.75 0 16.6315 0 17.7187V26.9062C0 27.9935 0.881508 28.875 1.96875 28.875ZM63 28.875V35.4349C63 38.9556 67.2592 40.6816 69.7218 38.2192L82.8468 25.0968C84.3846 23.559 84.3846 21.0659 82.8468 19.5284L69.7218 6.40647C67.2563 3.94094 63 5.6736 63 9.19061V15.75H53.3556C53.0856 15.75 52.8185 15.8056 52.5709 15.9131C52.3233 16.0207 52.1005 16.1781 51.9163 16.3754L15.75 55.125H1.96875C0.881508 55.125 0 56.0065 0 57.0937V66.2812C0 67.3685 0.881508 68.25 1.96875 68.25H20.1444C20.6901 68.25 21.2113 68.0234 21.5837 67.6246L57.75 28.875H63Z" fill="#545454"/>
</g>
<defs>
<clipPath id="clip0">
<rect width="84" height="84" fill="white"/>
</clipPath>
</defs>
</svg>
